<?xml version="1.0" encoding="UTF-8"?><svg id="b" xmlns="http://www.w3.org/2000/svg" viewBox="0 0 200 200"><defs><style>.d{fill:#004df4;}.e{fill:#fff;}</style></defs><g id="c"><circle class="d" cx="100" cy="100" r="100"/><path class="e" d="M125.53,54.39c-14.45,0-27.35,6.62-35.83,17-.77,2.11-1.66,4.16-2.66,6.15-1.59,3.18-3.46,6.19-5.57,9-6.29,8.38-14.73,15.04-24.51,19.15v40.64h30.08v-20.03c8.29,12.42,22.44,20.6,38.49,20.6,25.54,0,46.26-20.71,46.26-46.26s-20.71-46.25-46.26-46.25ZM125.53,118.05c-9.62,0-17.41-7.79-17.41-17.41s7.79-17.41,17.41-17.41,17.41,7.8,17.41,17.41-7.79,17.41-17.41,17.41Z"/><path class="e" d="M86.65,56.94c0-1.06-.04-2.12-.11-3.16h-29.01c.19,1.02.29,2.08.29,3.16,0,9.61-7.8,17.41-17.41,17.41-.44,0-.88-.02-1.32-.05v28.87c.44.02.87.02,1.32.02,25.54,0,46.25-20.71,46.25-46.25Z"/></g></svg>